<svg width="18" height="18" viewBox="0 0 18 18" fill="none" xmlns="http://www.w3.org/2000/svg">
<path d="M18 15.1043V9.88473C18 8.17741 18 7.3238 17.649 6.56926C17.2979 5.81472 16.6369 5.24758 15.3149 4.11331L14.3149 3.25533C11.7855 1.08511 10.5208 0 9 0C7.4792 0 6.2145 1.08511 3.68509 3.25533L2.68509 4.11331C1.36308 5.24758 0.70208 5.81472 0.35104 6.56926C0 7.3238 0 8.17741 0 9.88473V15.1043C0 16.0038 0 16.4535 0.15224 16.8083C0.35523 17.2813 0.74458 17.6571 1.23463 17.8531C1.60218 18 2.06812 18 3 18H3.33333C3.95331 18 4.26331 18 4.51764 17.9343C5.20782 17.7557 5.74692 17.2353 5.93185 16.5691C6 16.3237 6 16.0244 6 15.426V13.1738C6 11.5745 7.3431 10.2781 9 10.2781C10.6569 10.2781 12 11.5745 12 13.1738V15.426C12 16.0244 12 16.3237 12.0681 16.5691C12.2531 17.2353 12.7922 17.7557 13.4824 17.9343C13.7367 18 14.0467 18 14.6667 18H15C15.9319 18 16.3978 18 16.7654 17.8531C17.2554 17.6571 17.6448 17.2813 17.8478 16.8083C18 16.4535 18 16.0038 18 15.1043Z" fill="#98A2B3"/>
</svg>
